<svg width="366" height="116" viewBox="0 0 366 116" fill="none" xmlns="http://www.w3.org/2000/svg">
<path d="M45.24 55.744L48.44 64H60.6L41.72 19.2H30.008L10.68 64H22.392L25.656 55.744H45.24ZM41.912 47.104H28.984L35.512 30.528L41.912 47.104ZM106.074 64V19.2H95.45V46.848L74.778 19.2H64.73V64H75.418V36.416L96.026 64H106.074ZM115.043 19.2V64H133.859C148.259 64 158.115 54.848 158.115 41.6C158.115 28.288 148.387 19.2 134.307 19.2H115.043ZM126.435 28.288H134.051C141.283 28.288 146.531 33.728 146.531 41.664C146.531 49.536 141.539 54.912 134.563 54.912H126.435V28.288ZM187.147 49.536L203.403 19.2H192.011L181.451 38.72L170.635 19.2H159.242L175.819 49.856V64H187.147V49.536ZM253.01 24.128V19.2H218.642V24.128H233.234V64H238.354V24.128H253.01ZM296.377 19.2H291.257V45.568C291.257 54.272 286.137 59.328 277.625 59.328C269.113 59.328 263.865 54.272 263.865 45.568V19.2H258.745V45.568C258.745 57.216 265.849 64.256 277.625 64.256C289.337 64.256 296.377 57.216 296.377 45.568V19.2ZM308.254 19.2V64H326.174C339.358 64 349.406 54.336 349.406 41.6C349.406 28.864 339.422 19.2 326.366 19.2H308.254ZM313.374 24.128H326.238C336.286 24.128 344.222 31.616 344.222 41.664C344.222 51.648 336.414 59.136 326.43 59.136H313.374V24.128Z" fill="black"/>
<path d="M24.464 86.744L24.488 84.2H13.208V101H16.04V94.112H23.672V91.592H16.04V86.744H24.464ZM41.8447 101V84.2H39.0127V101H41.8447ZM69.7269 86.744V84.2H56.2629V86.744H61.5669V101H64.3989V86.744H69.7269ZM98.7213 101V84.2H95.9373V96.272L86.9373 84.2H84.1533V101H86.9853V88.952L95.9373 101H98.7213ZM127.161 86.744V84.2H115.161V101H127.449V98.456H117.993V93.824H126.201V91.28H117.993V86.744H127.161ZM148.431 84.08C144.783 84.08 142.311 85.88 142.311 88.76C142.311 94.736 151.383 92.648 151.383 96.392C151.383 97.688 150.207 98.432 148.239 98.432C146.439 98.432 144.279 97.568 142.551 95.984L141.327 98.432C143.055 100.016 145.551 101.096 148.191 101.096C151.887 101.096 154.527 99.248 154.527 96.248C154.551 90.2 145.479 92.168 145.479 88.496C145.479 87.368 146.559 86.744 148.215 86.744C149.487 86.744 151.311 87.2 153.135 88.304L154.311 85.808C152.751 84.776 150.615 84.08 148.431 84.08ZM175.361 84.08C171.713 84.08 169.241 85.88 169.241 88.76C169.241 94.736 178.313 92.648 178.313 96.392C178.313 97.688 177.137 98.432 175.169 98.432C173.369 98.432 171.209 97.568 169.481 95.984L168.257 98.432C169.985 100.016 172.481 101.096 175.121 101.096C178.817 101.096 181.457 99.248 181.457 96.248C181.481 90.2 172.409 92.168 172.409 88.496C172.409 87.368 173.489 86.744 175.145 86.744C176.417 86.744 178.241 87.2 180.065 88.304L181.241 85.808C179.681 84.776 177.545 84.08 175.361 84.08ZM222.398 84.128C217.43 84.128 213.566 87.8 213.566 92.576C213.566 97.4 217.382 101.12 222.302 101.12C224.678 101.12 227.102 100.04 228.806 98.36L227.126 96.488C225.854 97.712 224.126 98.48 222.446 98.48C219.086 98.48 216.446 95.864 216.446 92.552C216.446 89.24 219.086 86.648 222.446 86.648C224.15 86.648 225.902 87.464 227.126 88.784L228.782 86.72C227.15 85.112 224.774 84.128 222.398 84.128ZM250.853 84.128C245.837 84.128 241.949 87.776 241.949 92.6C241.949 97.4 245.837 101.12 250.853 101.12C255.869 101.12 259.757 97.4 259.757 92.6C259.757 87.8 255.869 84.128 250.853 84.128ZM250.877 86.672C254.165 86.672 256.853 89.264 256.853 92.6C256.853 95.936 254.165 98.576 250.877 98.576C247.589 98.576 244.829 95.936 244.829 92.6C244.829 89.264 247.565 86.672 250.877 86.672ZM285.197 97.208L286.805 101H289.829L282.485 84.2H279.581L272.165 101H275.117L276.725 97.208H285.197ZM284.117 94.688H277.781L280.949 87.224L284.117 94.688ZM311.086 84.128C306.118 84.128 302.254 87.8 302.254 92.576C302.254 97.4 306.07 101.12 310.99 101.12C313.366 101.12 315.79 100.04 317.494 98.36L315.814 96.488C314.542 97.712 312.814 98.48 311.134 98.48C307.773 98.48 305.134 95.864 305.134 92.552C305.134 89.24 307.773 86.648 311.134 86.648C312.838 86.648 314.59 87.464 315.814 88.784L317.47 86.72C315.838 85.112 313.462 84.128 311.086 84.128ZM346.948 101V84.2H344.116V91.496H335.212V84.2H332.38V101H335.212V94.04H344.116V101H346.948Z" fill="black" fill-opacity="0.57"/>
</svg>
