<svg width="366" height="116" viewBox="0 0 366 116" fill="none" xmlns="http://www.w3.org/2000/svg">
<path d="M49.24 51.744L52.44 60H64.6L45.72 15.2H34.008L14.68 60H26.392L29.656 51.744H49.24ZM45.912 43.104H32.984L39.512 26.528L45.912 43.104ZM110.074 60V15.2H99.45V42.848L78.778 15.2H68.73V60H79.418V32.416L100.026 60H110.074ZM119.043 15.2V60H137.859C152.259 60 162.115 50.848 162.115 37.6C162.115 24.288 152.387 15.2 138.307 15.2H119.043ZM130.435 24.288H138.051C145.283 24.288 150.531 29.728 150.531 37.664C150.531 45.536 145.539 50.912 138.563 50.912H130.435V24.288ZM191.147 45.536L207.403 15.2H196.011L185.451 34.72L174.635 15.2H163.242L179.819 45.856V60H191.147V45.536ZM257.01 20.128V15.2H222.642V20.128H237.234V60H242.354V20.128H257.01ZM300.377 15.2H295.257V41.568C295.257 50.272 290.137 55.328 281.625 55.328C273.113 55.328 267.865 50.272 267.865 41.568V15.2H262.745V41.568C262.745 53.216 269.849 60.256 281.625 60.256C293.337 60.256 300.377 53.216 300.377 41.568V15.2ZM312.254 15.2V60H330.174C343.358 60 353.406 50.336 353.406 37.6C353.406 24.864 343.422 15.2 330.366 15.2H312.254ZM317.374 20.128H330.238C340.286 20.128 348.222 27.616 348.222 37.664C348.222 47.648 340.414 55.136 330.43 55.136H317.374V20.128Z" fill="white"/>
<path d="M28.464 82.744L28.488 80.2H17.208V97H20.04V90.112H27.672V87.592H20.04V82.744H28.464ZM45.8447 97V80.2H43.0127V97H45.8447ZM73.7269 82.744V80.2H60.2629V82.744H65.5669V97H68.3989V82.744H73.7269ZM102.721 97V80.2H99.9373V92.272L90.9373 80.2H88.1533V97H90.9853V84.952L99.9373 97H102.721ZM131.161 82.744V80.2H119.161V97H131.449V94.456H121.993V89.824H130.201V87.28H121.993V82.744H131.161ZM152.431 80.08C148.783 80.08 146.311 81.88 146.311 84.76C146.311 90.736 155.383 88.648 155.383 92.392C155.383 93.688 154.207 94.432 152.239 94.432C150.439 94.432 148.279 93.568 146.551 91.984L145.327 94.432C147.055 96.016 149.551 97.096 152.191 97.096C155.887 97.096 158.527 95.248 158.527 92.248C158.551 86.2 149.479 88.168 149.479 84.496C149.479 83.368 150.559 82.744 152.215 82.744C153.487 82.744 155.311 83.2 157.135 84.304L158.311 81.808C156.751 80.776 154.615 80.08 152.431 80.08ZM179.361 80.08C175.713 80.08 173.241 81.88 173.241 84.76C173.241 90.736 182.313 88.648 182.313 92.392C182.313 93.688 181.137 94.432 179.169 94.432C177.369 94.432 175.209 93.568 173.481 91.984L172.257 94.432C173.985 96.016 176.481 97.096 179.121 97.096C182.817 97.096 185.457 95.248 185.457 92.248C185.481 86.2 176.409 88.168 176.409 84.496C176.409 83.368 177.489 82.744 179.145 82.744C180.417 82.744 182.241 83.2 184.065 84.304L185.241 81.808C183.681 80.776 181.545 80.08 179.361 80.08ZM226.398 80.128C221.43 80.128 217.566 83.8 217.566 88.576C217.566 93.4 221.382 97.12 226.302 97.12C228.678 97.12 231.102 96.04 232.806 94.36L231.126 92.488C229.854 93.712 228.126 94.48 226.446 94.48C223.086 94.48 220.446 91.864 220.446 88.552C220.446 85.24 223.086 82.648 226.446 82.648C228.15 82.648 229.902 83.464 231.126 84.784L232.782 82.72C231.15 81.112 228.774 80.128 226.398 80.128ZM254.853 80.128C249.837 80.128 245.949 83.776 245.949 88.6C245.949 93.4 249.837 97.12 254.853 97.12C259.869 97.12 263.757 93.4 263.757 88.6C263.757 83.8 259.869 80.128 254.853 80.128ZM254.877 82.672C258.165 82.672 260.853 85.264 260.853 88.6C260.853 91.936 258.165 94.576 254.877 94.576C251.589 94.576 248.829 91.936 248.829 88.6C248.829 85.264 251.565 82.672 254.877 82.672ZM289.197 93.208L290.805 97H293.829L286.485 80.2H283.581L276.165 97H279.117L280.725 93.208H289.197ZM288.117 90.688H281.781L284.949 83.224L288.117 90.688ZM315.086 80.128C310.118 80.128 306.254 83.8 306.254 88.576C306.254 93.4 310.07 97.12 314.99 97.12C317.366 97.12 319.79 96.04 321.494 94.36L319.814 92.488C318.542 93.712 316.814 94.48 315.134 94.48C311.773 94.48 309.134 91.864 309.134 88.552C309.134 85.24 311.773 82.648 315.134 82.648C316.838 82.648 318.59 83.464 319.814 84.784L321.47 82.72C319.838 81.112 317.462 80.128 315.086 80.128ZM350.948 97V80.2H348.116V87.496H339.212V80.2H336.38V97H339.212V90.04H348.116V97H350.948Z" fill="white" fill-opacity="0.57"/>
</svg>
